<svg id="svg" version="1.1" xmlns="http://www.w3.org/2000/svg" xmlns:xlink="http://www.w3.org/1999/xlink" width="800" height="800" viewBox="0 0 400 400"><g id="svgg"><path id="path0" d="M76.000 117.400 L 76.000 158.800 117.400 158.800 L 158.800 158.800 158.800 117.400 L 158.800 76.000 117.400 76.000 L 76.000 76.000 76.000 117.400 M242.667 76.267 C 242.520 76.413,242.400 95.020,242.400 117.616 L 242.400 158.698 240.807 158.953 C 239.930 159.093,221.274 159.202,199.348 159.196 C 177.421 159.190,159.406 159.261,159.313 159.354 C 159.220 159.447,159.162 168.510,159.185 179.495 C 159.208 190.479,159.111 199.766,158.970 200.133 C 158.736 200.744,156.992 200.800,138.371 200.800 C 118.668 200.800,118.015 200.824,117.614 201.574 C 116.960 202.797,117.044 324.435,117.700 325.328 C 118.161 325.957,119.765 326.001,138.400 325.905 L 158.600 325.800 158.704 305.416 C 158.761 294.205,158.952 284.888,159.129 284.711 C 159.567 284.273,241.658 284.298,242.096 284.736 C 242.287 284.927,242.429 294.041,242.411 304.988 C 242.388 319.431,242.505 325.045,242.838 325.446 C 243.679 326.459,283.440 326.247,283.986 325.226 C 284.640 324.003,284.556 202.364,283.900 201.477 C 283.444 200.861,281.613 200.793,263.000 200.701 L 242.600 200.600 242.496 179.702 L 242.393 158.804 284.096 158.702 L 325.800 158.600 325.902 117.300 L 326.004 76.000 284.469 76.000 C 261.624 76.000,242.813 76.120,242.667 76.267 " stroke="none" fill="#fbfbfb" fill-rule="evenodd"></path><path id="path1" d="M81.700 0.292 C 79.161 0.368,77.200 0.595,77.200 0.813 C 77.200 1.026,76.043 1.200,74.629 1.200 C 72.876 1.200,71.866 1.391,71.457 1.800 C 71.067 2.190,70.076 2.400,68.629 2.400 C 67.403 2.400,66.400 2.580,66.400 2.800 C 66.400 3.020,65.590 3.200,64.600 3.200 C 63.610 3.200,62.800 3.380,62.800 3.600 C 62.800 3.820,62.260 4.000,61.600 4.000 C 60.940 4.000,60.400 4.143,60.400 4.318 C 60.400 4.493,59.725 4.679,58.900 4.731 C 58.075 4.782,57.200 5.089,56.956 5.412 C 56.712 5.736,56.026 6.000,55.432 6.000 C 54.814 6.000,54.459 6.171,54.600 6.400 C 54.744 6.633,54.337 6.800,53.624 6.800 C 52.951 6.800,52.400 6.980,52.400 7.200 C 52.400 7.420,51.950 7.600,51.400 7.600 C 50.850 7.600,50.400 7.780,50.400 8.000 C 50.400 8.220,50.040 8.400,49.600 8.400 C 49.160 8.400,48.800 8.558,48.800 8.750 C 48.800 8.943,48.248 9.210,47.573 9.345 C 46.892 9.482,46.458 9.770,46.597 9.995 C 46.735 10.218,46.477 10.400,46.024 10.400 C 45.571 10.400,45.200 10.580,45.200 10.800 C 45.200 11.020,44.750 11.200,44.200 11.200 C 43.650 11.200,43.200 11.380,43.200 11.600 C 43.200 11.820,42.840 12.000,42.400 12.000 C 41.960 12.000,41.600 12.168,41.600 12.373 C 41.600 12.578,41.237 12.861,40.794 13.002 C 40.351 13.143,40.092 13.425,40.218 13.629 C 40.344 13.833,40.077 14.000,39.624 14.000 C 39.171 14.000,38.800 14.180,38.800 14.400 C 38.800 14.620,38.519 14.800,38.176 14.800 C 37.791 14.800,37.663 14.991,37.841 15.300 C 37.999 15.575,37.984 15.670,37.808 15.511 C 37.378 15.122,35.200 16.438,35.200 17.086 C 35.200 17.369,34.880 17.600,34.488 17.600 C 34.097 17.600,33.517 17.960,33.200 18.400 C 32.883 18.840,32.475 19.200,32.294 19.200 C 31.912 19.200,30.000 21.043,30.000 21.410 C 30.000 21.827,28.884 22.800,28.406 22.800 C 27.819 22.800,22.800 27.819,22.800 28.406 C 22.800 28.884,21.827 30.000,21.410 30.000 C 21.043 30.000,19.200 31.912,19.200 32.294 C 19.200 32.475,18.840 32.883,18.400 33.200 C 17.960 33.517,17.600 34.097,17.600 34.488 C 17.600 34.880,17.369 35.200,17.086 35.200 C 16.438 35.200,15.122 37.378,15.511 37.808 C 15.670 37.984,15.575 37.999,15.300 37.841 C 14.991 37.663,14.800 37.791,14.800 38.176 C 14.800 38.519,14.620 38.800,14.400 38.800 C 14.180 38.800,14.000 39.171,14.000 39.624 C 14.000 40.077,13.833 40.344,13.629 40.218 C 13.425 40.092,13.143 40.351,13.002 40.794 C 12.861 41.237,12.578 41.600,12.373 41.600 C 12.168 41.600,12.000 41.960,12.000 42.400 C 12.000 42.840,11.820 43.200,11.600 43.200 C 11.380 43.200,11.200 43.650,11.200 44.200 C 11.200 44.750,11.020 45.200,10.800 45.200 C 10.580 45.200,10.400 45.571,10.400 46.024 C 10.400 46.477,10.233 46.744,10.029 46.618 C 9.672 46.398,8.957 47.880,9.121 48.500 C 9.164 48.665,9.020 48.800,8.800 48.800 C 8.580 48.800,8.400 49.160,8.400 49.600 C 8.400 50.040,8.220 50.400,8.000 50.400 C 7.780 50.400,7.600 50.850,7.600 51.400 C 7.600 51.950,7.420 52.400,7.200 52.400 C 6.980 52.400,6.800 52.951,6.800 53.624 C 6.800 54.337,6.633 54.744,6.400 54.600 C 6.172 54.459,6.000 54.805,6.000 55.405 C 6.000 55.984,5.730 56.727,5.400 57.057 C 4.890 57.567,4.582 59.016,4.753 60.100 C 4.779 60.265,4.620 60.400,4.400 60.400 C 4.180 60.400,4.000 60.929,4.000 61.576 C 4.000 62.223,3.820 62.864,3.600 63.000 C 3.380 63.136,3.200 63.957,3.200 64.824 C 3.200 65.691,3.020 66.400,2.800 66.400 C 2.579 66.400,2.400 67.452,2.400 68.757 C 2.400 70.484,2.239 71.176,1.800 71.345 C 1.346 71.519,1.200 72.253,1.200 74.354 C 1.200 76.222,1.036 77.188,0.700 77.300 C -0.036 77.545,-0.036 322.455,0.700 322.700 C 1.036 322.812,1.200 323.778,1.200 325.646 C 1.200 327.747,1.346 328.481,1.800 328.655 C 2.239 328.824,2.400 329.516,2.400 331.243 C 2.400 332.548,2.579 333.600,2.800 333.600 C 3.020 333.600,3.200 334.309,3.200 335.176 C 3.200 336.043,3.380 336.864,3.600 337.000 C 3.820 337.136,4.000 337.856,4.000 338.600 C 4.000 339.344,4.180 340.064,4.400 340.200 C 4.620 340.336,4.800 340.982,4.800 341.636 C 4.800 342.324,5.053 342.922,5.400 343.055 C 5.746 343.188,6.000 343.786,6.000 344.466 C 6.000 345.152,6.168 345.543,6.400 345.400 C 6.633 345.256,6.800 345.663,6.800 346.376 C 6.800 347.049,6.980 347.600,7.200 347.600 C 7.420 347.600,7.600 348.050,7.600 348.600 C 7.600 349.150,7.780 349.600,8.000 349.600 C 8.220 349.600,8.400 349.956,8.400 350.390 C 8.400 351.368,9.772 353.695,10.135 353.332 C 10.281 353.186,10.400 353.421,10.400 353.854 C 10.400 354.801,11.280 356.793,11.700 356.797 C 11.865 356.799,12.000 357.160,12.000 357.600 C 12.000 358.040,12.168 358.400,12.373 358.400 C 12.578 358.400,12.861 358.763,13.002 359.206 C 13.143 359.649,13.425 359.908,13.629 359.782 C 13.833 359.656,14.000 359.923,14.000 360.376 C 14.000 360.829,14.180 361.200,14.400 361.200 C 14.620 361.200,14.800 361.481,14.800 361.824 C 14.800 362.209,14.991 362.337,15.300 362.159 C 15.575 362.001,15.670 362.016,15.511 362.192 C 15.122 362.622,16.438 364.800,17.086 364.800 C 17.369 364.800,17.600 365.120,17.600 365.512 C 17.600 365.903,17.960 366.483,18.400 366.800 C 18.840 367.117,19.200 367.525,19.200 367.706 C 19.200 368.088,21.043 370.000,21.410 370.000 C 21.827 370.000,22.800 371.116,22.800 371.594 C 22.800 372.181,27.819 377.200,28.406 377.200 C 28.884 377.200,30.000 378.173,30.000 378.590 C 30.000 378.911,31.889 380.800,32.210 380.800 C 32.346 380.800,32.729 381.072,33.061 381.404 C 33.393 381.736,33.858 381.888,34.094 381.742 C 34.349 381.585,34.407 381.664,34.238 381.938 C 34.069 382.212,34.207 382.400,34.576 382.400 C 34.919 382.400,35.200 382.631,35.200 382.914 C 35.200 383.562,37.378 384.878,37.808 384.489 C 37.984 384.330,37.999 384.425,37.841 384.700 C 37.663 385.009,37.791 385.200,38.176 385.200 C 38.519 385.200,38.800 385.380,38.800 385.600 C 38.800 385.820,39.171 386.000,39.624 386.000 C 40.077 386.000,40.344 386.167,40.218 386.371 C 40.092 386.575,40.351 386.857,40.794 386.998 C 41.237 387.139,41.600 387.422,41.600 387.627 C 41.600 387.832,41.960 388.000,42.400 388.000 C 42.840 388.000,43.200 388.180,43.200 388.400 C 43.200 388.620,43.650 388.800,44.200 388.800 C 44.750 388.800,45.200 388.980,45.200 389.200 C 45.200 389.420,45.571 389.600,46.024 389.600 C 46.477 389.600,46.744 389.767,46.618 389.971 C 46.398 390.328,47.880 391.043,48.500 390.879 C 48.665 390.836,48.800 390.980,48.800 391.200 C 48.800 391.420,49.160 391.600,49.600 391.600 C 50.040 391.600,50.400 391.780,50.400 392.000 C 50.400 392.220,50.850 392.400,51.400 392.400 C 51.950 392.400,52.400 392.580,52.400 392.800 C 52.400 393.020,52.951 393.200,53.624 393.200 C 54.337 393.200,54.744 393.367,54.600 393.600 C 54.459 393.828,54.805 394.000,55.405 394.000 C 55.984 394.000,56.727 394.270,57.057 394.600 C 57.567 395.110,59.016 395.418,60.100 395.247 C 60.265 395.221,60.400 395.380,60.400 395.600 C 60.400 395.820,60.929 396.000,61.576 396.000 C 62.223 396.000,62.864 396.180,63.000 396.400 C 63.136 396.620,63.957 396.800,64.824 396.800 C 65.691 396.800,66.400 396.980,66.400 397.200 C 66.400 397.420,67.403 397.600,68.629 397.600 C 70.076 397.600,71.067 397.810,71.457 398.200 C 71.864 398.607,72.872 398.800,74.595 398.800 C 76.270 398.800,77.190 398.970,77.300 399.300 C 77.545 400.036,322.455 400.036,322.700 399.300 C 322.810 398.970,323.730 398.800,325.405 398.800 C 327.128 398.800,328.136 398.607,328.543 398.200 C 328.933 397.810,329.924 397.600,331.371 397.600 C 332.597 397.600,333.600 397.420,333.600 397.200 C 333.600 396.980,334.410 396.800,335.400 396.800 C 336.390 396.800,337.200 396.620,337.200 396.400 C 337.200 396.180,337.920 396.000,338.800 396.000 C 339.680 396.000,340.400 395.820,340.400 395.600 C 340.400 395.380,340.946 395.200,341.613 395.200 C 342.321 395.200,342.921 394.951,343.055 394.600 C 343.188 394.254,343.786 394.000,344.466 394.000 C 345.152 394.000,345.543 393.832,345.400 393.600 C 345.256 393.367,345.663 393.200,346.376 393.200 C 347.049 393.200,347.600 393.020,347.600 392.800 C 347.600 392.580,348.050 392.400,348.600 392.400 C 349.150 392.400,349.600 392.220,349.600 392.000 C 349.600 391.780,349.960 391.600,350.400 391.600 C 350.840 391.600,351.200 391.420,351.200 391.200 C 351.200 390.980,351.335 390.836,351.500 390.879 C 352.120 391.043,353.602 390.328,353.382 389.971 C 353.256 389.767,353.523 389.600,353.976 389.600 C 354.429 389.600,354.800 389.420,354.800 389.200 C 354.800 388.980,355.250 388.800,355.800 388.800 C 356.350 388.800,356.800 388.620,356.800 388.400 C 356.800 388.180,357.160 388.000,357.600 388.000 C 358.040 388.000,358.400 387.832,358.400 387.627 C 358.400 387.422,358.763 387.139,359.206 386.998 C 359.649 386.857,359.908 386.575,359.782 386.371 C 359.656 386.167,359.923 386.000,360.376 386.000 C 360.829 386.000,361.200 385.820,361.200 385.600 C 361.200 385.380,361.481 385.200,361.824 385.200 C 362.209 385.200,362.337 385.009,362.159 384.700 C 362.001 384.425,362.016 384.330,362.192 384.489 C 362.622 384.878,364.800 383.562,364.800 382.914 C 364.800 382.631,365.120 382.400,365.512 382.400 C 365.903 382.400,366.483 382.040,366.800 381.600 C 367.117 381.160,367.525 380.800,367.706 380.800 C 368.088 380.800,370.000 378.957,370.000 378.590 C 370.000 378.173,371.116 377.200,371.594 377.200 C 372.181 377.200,377.200 372.181,377.200 371.594 C 377.200 371.116,378.173 370.000,378.590 370.000 C 378.957 370.000,380.800 368.088,380.800 367.706 C 380.800 367.525,381.160 367.117,381.600 366.800 C 382.040 366.483,382.400 365.903,382.400 365.512 C 382.400 365.120,382.631 364.800,382.914 364.800 C 383.562 364.800,384.878 362.622,384.489 362.192 C 384.330 362.016,384.425 362.001,384.700 362.159 C 385.009 362.337,385.200 362.209,385.200 361.824 C 385.200 361.481,385.380 361.200,385.600 361.200 C 385.820 361.200,386.000 360.829,386.000 360.376 C 386.000 359.923,386.167 359.656,386.371 359.782 C 386.575 359.908,386.857 359.649,386.998 359.206 C 387.139 358.763,387.422 358.400,387.627 358.400 C 387.832 358.400,388.000 358.040,388.000 357.600 C 388.000 357.160,388.180 356.800,388.400 356.800 C 388.620 356.800,388.800 356.350,388.800 355.800 C 388.800 355.250,388.980 354.800,389.200 354.800 C 389.420 354.800,389.600 354.429,389.600 353.976 C 389.600 353.523,389.767 353.256,389.971 353.382 C 390.328 353.602,391.043 352.120,390.879 351.500 C 390.836 351.335,390.980 351.200,391.200 351.200 C 391.420 351.200,391.600 350.840,391.600 350.400 C 391.600 349.960,391.780 349.600,392.000 349.600 C 392.220 349.600,392.400 349.150,392.400 348.600 C 392.400 348.050,392.580 347.600,392.800 347.600 C 393.020 347.600,393.200 347.049,393.200 346.376 C 393.200 345.663,393.367 345.256,393.600 345.400 C 393.832 345.543,394.000 345.152,394.000 344.466 C 394.000 343.786,394.254 343.188,394.600 343.055 C 394.947 342.922,395.200 342.324,395.200 341.636 C 395.200 340.982,395.380 340.336,395.600 340.200 C 395.820 340.064,396.000 339.344,396.000 338.600 C 396.000 337.856,396.180 337.136,396.400 337.000 C 396.620 336.864,396.800 336.043,396.800 335.176 C 396.800 334.309,396.980 333.600,397.200 333.600 C 397.421 333.600,397.600 332.548,397.600 331.243 C 397.600 329.516,397.761 328.824,398.200 328.655 C 398.654 328.481,398.800 327.747,398.800 325.646 C 398.800 323.778,398.964 322.812,399.300 322.700 C 400.036 322.455,400.036 77.545,399.300 77.300 C 398.964 77.188,398.800 76.222,398.800 74.354 C 398.800 72.253,398.654 71.519,398.200 71.345 C 397.761 71.176,397.600 70.484,397.600 68.757 C 397.600 67.452,397.421 66.400,397.200 66.400 C 396.980 66.400,396.800 65.691,396.800 64.824 C 396.800 63.957,396.620 63.136,396.400 63.000 C 396.180 62.864,396.000 62.043,396.000 61.176 C 396.000 60.309,395.820 59.600,395.600 59.600 C 395.380 59.600,395.200 59.054,395.200 58.387 C 395.200 57.679,394.951 57.079,394.600 56.945 C 394.254 56.812,394.000 56.214,394.000 55.534 C 394.000 54.848,393.832 54.457,393.600 54.600 C 393.367 54.744,393.200 54.337,393.200 53.624 C 393.200 52.951,393.020 52.400,392.800 52.400 C 392.580 52.400,392.400 51.950,392.400 51.400 C 392.400 50.850,392.220 50.400,392.000 50.400 C 391.780 50.400,391.600 50.068,391.600 49.661 C 391.600 48.706,390.657 46.826,389.618 45.711 C 389.168 45.229,388.800 44.466,388.800 44.017 C 388.800 43.568,388.620 43.200,388.400 43.200 C 388.180 43.200,388.000 42.840,388.000 42.400 C 388.000 41.960,387.832 41.600,387.627 41.600 C 387.422 41.600,387.139 41.237,386.998 40.794 C 386.857 40.351,386.575 40.092,386.371 40.218 C 386.167 40.344,386.000 40.077,386.000 39.624 C 386.000 39.171,385.820 38.800,385.600 38.800 C 385.380 38.800,385.200 38.519,385.200 38.176 C 385.200 37.791,385.009 37.663,384.700 37.841 C 384.425 37.999,384.330 37.984,384.489 37.808 C 384.878 37.378,383.562 35.200,382.914 35.200 C 382.631 35.200,382.400 34.880,382.400 34.488 C 382.400 34.097,382.040 33.517,381.600 33.200 C 381.160 32.883,380.800 32.475,380.800 32.294 C 380.800 31.912,378.957 30.000,378.590 30.000 C 378.157 30.000,377.200 28.875,377.200 28.367 C 377.200 27.826,372.047 22.800,371.492 22.800 C 371.093 22.800,370.000 21.782,370.000 21.410 C 370.000 21.089,368.111 19.200,367.790 19.200 C 367.654 19.200,367.271 18.928,366.939 18.596 C 366.607 18.264,366.142 18.112,365.906 18.258 C 365.651 18.415,365.593 18.336,365.762 18.062 C 365.931 17.788,365.793 17.600,365.424 17.600 C 365.081 17.600,364.800 17.369,364.800 17.086 C 364.800 16.438,362.622 15.122,362.192 15.511 C 362.016 15.670,362.001 15.575,362.159 15.300 C 362.337 14.991,362.209 14.800,361.824 14.800 C 361.481 14.800,361.200 14.620,361.200 14.400 C 361.200 14.180,360.829 14.000,360.376 14.000 C 359.923 14.000,359.656 13.833,359.782 13.629 C 359.908 13.425,359.649 13.143,359.206 13.002 C 358.763 12.861,358.400 12.578,358.400 12.373 C 358.400 12.168,358.040 12.000,357.600 12.000 C 357.160 12.000,356.800 11.820,356.800 11.600 C 356.800 11.380,356.350 11.200,355.800 11.200 C 355.250 11.200,354.800 11.020,354.800 10.800 C 354.800 10.580,354.429 10.400,353.976 10.400 C 353.523 10.400,353.256 10.233,353.382 10.029 C 353.602 9.672,352.120 8.957,351.500 9.121 C 351.335 9.164,351.200 9.020,351.200 8.800 C 351.200 8.580,350.840 8.400,350.400 8.400 C 349.960 8.400,349.600 8.220,349.600 8.000 C 349.600 7.780,349.150 7.600,348.600 7.600 C 348.050 7.600,347.600 7.420,347.600 7.200 C 347.600 6.980,347.049 6.800,346.376 6.800 C 345.663 6.800,345.256 6.633,345.400 6.400 C 345.541 6.172,345.195 6.000,344.595 6.000 C 344.016 6.000,343.273 5.730,342.943 5.400 C 342.613 5.070,341.726 4.800,340.971 4.800 C 340.217 4.800,339.600 4.620,339.600 4.400 C 339.600 4.180,339.071 4.000,338.424 4.000 C 337.777 4.000,337.136 3.820,337.000 3.600 C 336.864 3.380,336.043 3.200,335.176 3.200 C 334.309 3.200,333.600 3.020,333.600 2.800 C 333.600 2.580,332.597 2.400,331.371 2.400 C 329.924 2.400,328.933 2.190,328.543 1.800 C 328.136 1.393,327.128 1.200,325.405 1.200 C 323.730 1.200,322.810 1.030,322.700 0.700 C 322.546 0.237,96.339 -0.146,81.700 0.292 M158.800 117.400 L 158.800 158.800 117.400 158.800 L 76.000 158.800 76.000 117.400 L 76.000 76.000 117.400 76.000 L 158.800 76.000 158.800 117.400 M325.902 117.300 L 325.800 158.600 284.096 158.702 L 242.393 158.804 242.496 179.702 L 242.600 200.600 263.000 200.701 C 281.613 200.793,283.444 200.861,283.900 201.477 C 284.556 202.364,284.640 324.003,283.986 325.226 C 283.440 326.247,243.679 326.459,242.838 325.446 C 242.505 325.045,242.388 319.431,242.411 304.988 C 242.429 294.041,242.287 284.927,242.096 284.736 C 241.658 284.298,159.567 284.273,159.129 284.711 C 158.952 284.888,158.761 294.205,158.704 305.416 L 158.600 325.800 138.400 325.905 C 119.765 326.001,118.161 325.957,117.700 325.328 C 117.044 324.435,116.960 202.797,117.614 201.574 C 118.015 200.824,118.668 200.800,138.371 200.800 C 156.992 200.800,158.736 200.744,158.970 200.133 C 159.111 199.766,159.208 190.479,159.185 179.495 C 159.162 168.510,159.220 159.447,159.313 159.354 C 159.406 159.261,177.421 159.190,199.348 159.196 C 221.274 159.202,239.930 159.093,240.807 158.953 L 242.400 158.698 242.400 117.616 C 242.400 95.020,242.520 76.413,242.667 76.267 C 242.813 76.120,261.624 76.000,284.469 76.000 L 326.004 76.000 325.902 117.300 " stroke="none" fill="#2cbc1c" fill-rule="evenodd"></path></g></svg>