<?xml version="1.0" encoding="utf-8"?>
<!-- Generator: Adobe Illustrator 28.1.0, SVG Export Plug-In . SVG Version: 6.00 Build 0)  -->
<svg version="1.1" xmlns="http://www.w3.org/2000/svg" xmlns:xlink="http://www.w3.org/1999/xlink" x="0px" y="0px"
	 viewBox="0 0 280 280" style="enable-background:new 0 0 280 280;" xml:space="preserve">
<style type="text/css">
	.st0{clip-path:url(#SVGID_00000145759342297377466940000014761543449612883125_);}
	.st1{fill:#26282A;}
	.st2{fill:#FEFEFE;}
	.st3{fill:#E1B614;}
	.st4{fill:#E0B514;}
	.st5{fill:#DFB514;}
	.st6{fill:#DEB414;}
	.st7{fill:#DAB115;}
</style>
<g id="Layer_1">
</g>
<g id="Layer_2">
	<g>
		<defs>
			<path id="SVGID_1_" d="M57.4,0h165.2c31.7,0.1,57.3,25.7,57.4,57.4v165.2c-0.1,31.7-25.7,57.3-57.4,57.4l-165.2,0
				C25.7,279.9,0.1,254.3,0,222.6L0,57.4C0.1,25.7,25.7,0.1,57.4,0L57.4,0z"/>
		</defs>
		<clipPath id="SVGID_00000096754126078677453000000002908431992967408313_">
			<use xlink:href="#SVGID_1_"  style="overflow:visible;"/>
		</clipPath>
		
			<g transform="translate(0.000000,280.000000) scale(0.100000,-0.100000)" style="clip-path:url(#SVGID_00000096754126078677453000000002908431992967408313_);">
			<path d="M0,1400V0h1400h1400v1400v1400H1400H0V1400z M2025,1863c65-22,136-93,158-158c24-69,25-538,1-607c-20-61-70-118-130-148
				l-49-25h-605H795l-49,25c-27,14-64,42-82,64c-59,69-64,100-64,386c0,300,5,326,80,401c80,80,58,77,716,78
				C1913,1880,1982,1878,2025,1863z"/>
			<path d="M837,1770c-52-10-88-38-114-90c-22-42-23-55-23-280s1-238,23-280c27-54,61-80,118-91s1061-11,1118,0s91,37,119,91
				c21,42,22,55,22,280s-1,238-22,280c-28,54-62,80-119,91C1905,1781,890,1781,837,1770z M1052,1644c24-12,32-13,56-1
				c71,36,133,28,189-25c69-66,73-257,4-266c-43-7-61,23-61,101c0,76-15,107-53,107c-41,0-57-28-57-102c0-84-11-108-48-108
				c-43,0-52,17-52,95c0,80-17,115-55,115c-41,0-55-25-55-98c0-77-17-112-55-112c-36,0-55,35-55,105c0,83,14,125,53,163
				C917,1671,983,1680,1052,1644z M1540,1650c24-24,25-47,3-72c-34-38-113-12-113,38C1430,1664,1503,1687,1540,1650z M1962,1658
				c28-22,31-55,9-77c-19-19-33-21-145-21c-135,0-156,7-156,55c0,44,33,55,160,55C1908,1670,1951,1666,1962,1658z M1976,1425
				c15-23,15-27,0-50c-16-24-21-25-111-25h-95v-95c0-90-1-95-25-111c-23-15-27-15-50,0c-24,16-25,21-25,111v95h-93
				c-101,0-117,7-117,50c0,49,8,50,262,50h238L1976,1425z M1001,1230c27-15,25-64-3-84c-27-20-137-22-160-3c-28,21-31,54-9,76
				c17,17,34,21,87,21C952,1240,990,1235,1001,1230z M1542,1223c24-21,23-48-2-73c-18-18-33-20-195-20s-177,2-195,20
				c-11,11-20,27-20,35s9,24,20,35c18,18,33,20,197,20C1497,1240,1526,1238,1542,1223z M1971,1219c30-30,5-89-38-89
				c-18,0-53,37-53,55c0,8,9,24,20,35C1925,1245,1945,1245,1971,1219z"/>
		</g>
		<g style="clip-path:url(#SVGID_00000096754126078677453000000002908431992967408313_);">
			<g>
				<path class="st1" d="M-36.7-28.9c116.6,0,233.2,0,349.9-0.1c4.3,0,5.2,0.9,5.2,5.2c-0.2,116.7-0.1,233.4-0.1,350
					c-2.2,1.2-4.6,0.6-6.8,0.6c-113.6,0-227.3,0-340.9,0c-8.7,0-7.8,0.9-7.8-7.8c0-113.7,0-227.4,0-341.1
					C-37.3-24.3-37.9-26.7-36.7-28.9z"/>
				<path class="st2" d="M-36.7-28.9c0,116,0,232.1-0.1,348.1c0,5.7,1.4,7.2,7.1,7.1c116-0.2,231.9-0.1,347.9-0.1
					c0.4,2-1.1,1.2-1.9,1.2c-117,0-234.1,0-351.1,0.2c-4.5,0-3.1-2.5-3.1-4.6c0-69.8,0-139.5,0-209.3c0-45.9,0-91.7,0.1-137.6
					C-37.9-25.4-39.4-27.7-36.7-28.9z"/>
				<path class="st3" d="M141.4,87.7c21.5,0,43.1,0,64.6,0c22.3,0,36.2,14,36.3,36.5c0,16.7,0.1,33.4,0,50.1
					c-0.1,21.2-14.3,35.5-35.3,35.5c-44.1,0.1-88.2,0.1-132.4,0c-20.8,0-35.1-14.3-35.3-34.9c-0.1-17.3-0.1-34.6,0-52
					c0.1-21,14.4-35.1,35.6-35.2C97,87.6,119.2,87.7,141.4,87.7z"/>
				<path class="st1" d="M140.6,196c-21.7,0-43.5,0-65.2,0c-14.8,0-22.7-7.7-22.9-22.5c-0.2-16.5-0.2-32.9,0-49.4
					c0.2-14.9,8-22.6,22.9-22.6c43.7,0,87.4,0,131,0c14.4,0,22.4,7.7,22.6,22.2c0.2,16.7,0.2,33.4,0,50
					c-0.2,14.5-8.2,22.2-22.5,22.3C184.5,196,162.5,196,140.6,196z"/>
				<path class="st3" d="M66.2,140.7c0-15.4,5.3-23.2,17-25.7c6.6-1.4,11.9,4.2,17.3,3.7c5.3-0.4,10.4-5.1,16.7-3.6
					c8.6,2,14.2,7,16.2,15.8c1.3,5.9,0.9,11.8,0.5,17.7c-0.2,3.9-2.4,6.8-6.9,6.6c-4.5-0.2-6.3-3-6.5-7.1c-0.2-4-0.1-8-0.1-12
					c0-4.5-2.2-7.5-6.7-7.6s-6.8,2.9-7,7.3c-0.2,4-0.1,8-0.1,12c0,4.5-1.8,7.4-6.7,7.3c-4.8-0.1-6.5-3.2-6.5-7.6
					c0-3.8,0.1-7.6,0-11.4c-0.2-4.7-2.4-7.9-7.3-7.7c-4.4,0.2-6.5,3.3-6.4,7.8c0.1,3.8,0.1,7.6,0,11.4c-0.1,4.3-1.9,7.5-6.7,7.4
					c-4.8-0.1-6.6-3.2-6.8-7.5C66.1,145.4,66.2,143.1,66.2,140.7z"/>
				<path class="st3" d="M215.2,148.6c-0.7,4-2.8,6.5-7.1,6.6c-5.3,0.1-10.5,0.2-15.8,0c-3.3-0.1-4.5,1.2-4.4,4.4
					c0.2,5.1,0,10.1,0,15.2c0,4.5-2.1,7.6-6.6,7.6s-6.6-3.2-6.5-7.6c0-5.1-0.1-10.1,0-15.2c0.1-3.2-0.9-4.6-4.3-4.5
					c-5.1,0.2-10.1,0-15.2,0c-4.5,0-7.6-2.1-7.6-6.6c0-4.4,3.1-6.6,7.6-6.6c17.3,0,34.6,0,51.9,0
					C211.7,142.1,214.3,144.1,215.2,148.6z"/>
				<path class="st4" d="M133.7,169c6.3,0,12.6,0.1,18.9,0c4.7-0.1,8.1,1.8,8.3,6.6s-3.1,7.2-7.8,7.2c-12.8,0.1-25.6,0.1-38.5,0
					c-4.6,0-7.9-2.5-7.7-7.3c0.2-4.4,3.3-6.5,7.8-6.4C121.1,169.1,127.4,169,133.7,169z"/>
				<path class="st4" d="M195.1,128.3c-4.4,0-8.9,0.1-13.3,0c-4.3-0.1-6.8-2.3-6.8-6.6c-0.1-4.3,2.5-6.9,6.6-7
					c8.9-0.3,17.7-0.2,26.6,0c4.1,0.1,7,2.6,7,6.8c0,4.4-2.8,6.9-7.3,6.9C203.5,128.4,199.3,128.4,195.1,128.3z"/>
				<path class="st5" d="M79.3,182.9c-2.5-0.1-5.1,0.1-7.5-0.4c-3.4-0.8-5.6-3.2-5.4-6.8c0.2-3.8,2.4-6.4,6.3-6.6
					c4.6-0.2,9.2-0.2,13.9,0c3.9,0.1,6.4,2.4,6.6,6.3c0.3,4.2-2.4,6.7-6.3,7.3C84.4,183.1,81.9,182.8,79.3,182.9L79.3,182.9z"/>
				<path class="st6" d="M153.3,128.4c-5.5,0-9.1-1.8-8.9-7.2c0.2-4.9,3.7-6.6,8.2-6.7c5,0,8.8,3.1,8.3,7.3
					C160.4,126.7,157.3,128.6,153.3,128.4z"/>
				<path class="st7" d="M215.3,175.4c-0.5,4.4-2.8,7.2-6.9,7.2c-4.1,0-6.7-2.8-6.6-7c0.1-3.8,2.3-6.4,6.3-6.5
					C212.6,168.9,214.4,171.9,215.3,175.4z"/>
			</g>
		</g>
	</g>
</g>
</svg>
