<svg id="svg" version="1.1" xmlns="http://www.w3.org/2000/svg" xmlns:xlink="http://www.w3.org/1999/xlink" width="400" height="400" viewBox="0 0 400 400"><g id="svgg"><path id="path0" d="M106.962 106.554 C 106.627 107.427,106.730 107.580,120.027 126.050 C 126.815 135.479,132.600 143.600,132.884 144.097 C 133.298 144.822,133.439 159.724,133.600 219.600 L 133.800 294.200 156.582 294.200 L 179.364 294.200 179.642 293.200 C 179.795 292.650,179.938 276.951,179.960 258.314 C 179.999 225.243,180.019 224.418,180.774 224.014 C 182.382 223.153,189.046 223.499,190.133 224.500 C 190.671 224.995,199.442 240.610,209.625 259.200 C 219.808 277.790,228.406 293.315,228.732 293.700 C 229.284 294.353,231.035 294.400,254.907 294.400 L 280.491 294.400 280.324 293.300 C 280.233 292.695,273.617 280.950,265.622 267.200 C 243.829 229.717,239.749 222.681,239.269 221.755 C 238.621 220.506,239.376 219.791,242.400 218.789 C 271.462 209.161,286.682 176.351,276.390 145.519 C 269.454 124.740,251.488 111.219,225.088 106.910 C 219.223 105.952,107.322 105.616,106.962 106.554 M216.586 145.742 C 227.152 148.808,232.216 155.904,232.184 167.600 C 232.150 180.004,226.219 187.699,215.065 189.807 C 211.862 190.413,182.087 190.715,180.633 190.157 C 179.784 189.832,179.655 146.108,180.500 145.255 C 181.348 144.399,213.450 144.832,216.586 145.742 " stroke="none" fill="#fb4353" fill-rule="evenodd"></path><path id="path1" d="M46.800 0.291 C 46.030 0.382,45.229 0.624,45.020 0.829 C 44.811 1.033,44.321 1.200,43.932 1.200 C 43.543 1.200,42.583 1.560,41.800 2.000 C 41.017 2.440,40.158 2.800,39.891 2.800 C 39.147 2.800,32.123 6.369,31.581 7.023 C 31.318 7.340,30.934 7.600,30.729 7.600 C 30.322 7.600,26.343 10.224,23.800 12.170 C 21.729 13.754,13.754 21.729,12.170 23.800 C 10.494 25.990,7.600 30.300,7.600 30.606 C 7.600 30.743,7.098 31.608,6.484 32.528 C 5.444 34.087,3.960 37.013,3.149 39.100 C 2.957 39.595,2.596 40.495,2.346 41.100 C 2.097 41.705,1.737 42.605,1.546 43.100 C 1.356 43.595,0.975 44.477,0.700 45.061 C -0.035 46.620,-0.035 353.725,0.700 354.460 C 0.975 354.735,1.200 355.286,1.200 355.685 C 1.200 356.084,1.359 356.723,1.553 357.105 C 1.748 357.487,2.086 358.250,2.306 358.800 C 6.028 368.118,14.015 379.767,19.800 384.315 C 20.680 385.006,21.945 386.074,22.611 386.686 C 24.485 388.409,27.114 390.400,27.515 390.400 C 27.713 390.400,28.202 390.760,28.600 391.200 C 28.998 391.640,29.493 392.000,29.700 392.000 C 29.907 392.000,30.602 392.374,31.244 392.832 C 32.865 393.986,38.396 396.800,39.043 396.800 C 39.336 396.800,40.217 397.160,41.000 397.600 C 41.783 398.040,42.768 398.400,43.189 398.400 C 43.609 398.400,44.064 398.580,44.200 398.800 C 44.336 399.020,44.876 399.200,45.400 399.200 C 45.924 399.200,46.464 399.380,46.600 399.600 C 46.967 400.194,351.551 400.150,353.754 399.556 C 356.608 398.786,357.652 398.344,364.475 395.014 C 367.486 393.545,370.163 392.085,370.424 391.771 C 370.685 391.457,371.118 391.200,371.387 391.200 C 371.656 391.200,372.202 390.840,372.600 390.400 C 372.998 389.960,373.551 389.600,373.829 389.600 C 374.106 389.600,374.393 389.458,374.467 389.285 C 374.540 389.112,375.410 388.347,376.400 387.585 C 380.657 384.309,391.200 372.751,391.200 371.360 C 391.200 371.230,391.539 370.646,391.953 370.062 C 392.811 368.852,394.196 366.454,395.223 364.400 C 396.552 361.742,398.000 358.519,398.000 358.221 C 398.000 358.056,398.247 357.354,398.550 356.660 C 398.852 355.967,399.302 354.659,399.550 353.754 C 400.150 351.560,400.199 46.970,399.600 46.600 C 399.380 46.464,399.200 45.924,399.200 45.400 C 399.200 44.876,399.020 44.336,398.800 44.200 C 398.580 44.064,398.400 43.524,398.400 43.000 C 398.400 42.476,398.220 41.936,398.000 41.800 C 397.780 41.664,397.600 41.232,397.600 40.841 C 397.600 40.043,394.154 33.102,392.846 31.265 C 392.381 30.611,392.000 29.907,392.000 29.700 C 392.000 29.493,391.640 28.998,391.200 28.600 C 390.760 28.202,390.400 27.728,390.400 27.546 C 390.400 26.620,383.092 18.120,380.200 15.682 C 379.100 14.755,377.652 13.502,376.981 12.898 C 376.311 12.294,375.479 11.620,375.132 11.400 C 374.786 11.180,373.430 10.249,372.120 9.332 C 369.632 7.590,367.565 6.352,365.200 5.188 C 359.734 2.497,358.606 2.000,357.967 2.000 C 357.571 2.000,357.136 1.820,357.000 1.600 C 356.864 1.380,356.349 1.200,355.856 1.200 C 355.363 1.200,354.735 0.975,354.460 0.700 C 353.982 0.222,50.785 -0.181,46.800 0.291 M225.088 106.910 C 251.488 111.219,269.454 124.740,276.390 145.519 C 286.682 176.351,271.462 209.161,242.400 218.789 C 239.376 219.791,238.621 220.506,239.269 221.755 C 239.749 222.681,243.829 229.717,265.622 267.200 C 273.617 280.950,280.233 292.695,280.324 293.300 L 280.491 294.400 254.907 294.400 C 231.035 294.400,229.284 294.353,228.732 293.700 C 228.406 293.315,219.808 277.790,209.625 259.200 C 199.442 240.610,190.671 224.995,190.133 224.500 C 189.046 223.499,182.382 223.153,180.774 224.014 C 180.019 224.418,179.999 225.243,179.960 258.314 C 179.938 276.951,179.795 292.650,179.642 293.200 L 179.364 294.200 156.582 294.200 L 133.800 294.200 133.600 219.600 C 133.439 159.724,133.298 144.822,132.884 144.097 C 132.600 143.600,126.815 135.479,120.027 126.050 C 106.730 107.580,106.627 107.427,106.962 106.554 C 107.322 105.616,219.223 105.952,225.088 106.910 M180.500 145.255 C 179.655 146.108,179.784 189.832,180.633 190.157 C 182.087 190.715,211.862 190.413,215.065 189.807 C 226.219 187.699,232.150 180.004,232.184 167.600 C 232.216 155.904,227.152 148.808,216.586 145.742 C 213.450 144.832,181.348 144.399,180.500 145.255 " stroke="none" fill="#141c24" fill-rule="evenodd"></path></g></svg>