<?xml version="1.0" encoding="UTF-8"?>
<!DOCTYPE svg PUBLIC "-//W3C//DTD SVG 1.1//EN" "http://www.w3.org/Graphics/SVG/1.1/DTD/svg11.dtd">
<svg xmlns="http://www.w3.org/2000/svg" version="1.1" width="1000px" height="1000px" style="shape-rendering:geometricPrecision; text-rendering:geometricPrecision; image-rendering:optimizeQuality; fill-rule:evenodd; clip-rule:evenodd" xmlns:xlink="http://www.w3.org/1999/xlink">
<g><path style="opacity:0.987" fill="#4e351f" d="M 893.5,257.5 C 892.551,258.152 891.385,258.486 890,258.5C 863.535,256.267 837.035,254.6 810.5,253.5C 785.709,236.386 760.376,220.053 734.5,204.5C 671.544,163.015 608.21,122.015 544.5,81.5C 529.735,71.6082 514.735,61.9416 499.5,52.5C 477.856,66.1664 456.522,80.1664 435.5,94.5C 388.582,124.079 341.916,154.079 295.5,184.5C 290.665,169.99 285.998,155.324 281.5,140.5C 354.149,94.5068 426.815,48.5068 499.5,2.5C 630.827,87.4904 762.16,172.49 893.5,257.5 Z"/></g>
<g><path style="opacity:0.996" fill="#2b3d1f" d="M 281.5,140.5 C 285.998,155.324 290.665,169.99 295.5,184.5C 297.056,191.085 299.056,197.418 301.5,203.5C 306.345,220.545 311.345,237.545 316.5,254.5C 318.188,259.236 319.855,263.903 321.5,268.5C 323.298,275.226 325.298,281.893 327.5,288.5C 330.147,296.422 332.48,304.422 334.5,312.5C 336.481,317.111 338.147,321.777 339.5,326.5C 344.345,342.88 349.345,359.213 354.5,375.5C 355.848,379.584 357.181,383.584 358.5,387.5C 360.5,394.501 362.5,401.501 364.5,408.5C 380.101,456.636 395.101,504.969 409.5,553.5C 418.27,549.949 426.604,545.615 434.5,540.5C 438.151,539.341 441.485,537.674 444.5,535.5C 466.762,524.369 488.762,512.702 510.5,500.5C 515.667,498.084 520.667,495.418 525.5,492.5C 541.121,485.023 556.455,477.023 571.5,468.5C 574.401,471.312 577.068,474.312 579.5,477.5C 585.937,486.055 592.604,494.388 599.5,502.5C 605.091,510.604 610.924,518.604 617,526.5C 618.113,528.329 619.613,529.163 621.5,529C 623.617,527.269 625.117,525.102 626,522.5C 636.271,498.512 646.438,474.512 656.5,450.5C 659.629,443.132 662.962,435.799 666.5,428.5C 672.833,413.167 679.167,397.833 685.5,382.5C 687.344,378.99 689.011,375.323 690.5,371.5C 695.167,360.5 699.833,349.5 704.5,338.5C 705.836,335.162 707.169,331.829 708.5,328.5C 716.018,312.121 723.018,295.454 729.5,278.5C 731.537,275.416 733.203,272.083 734.5,268.5C 737.066,262.304 739.733,256.138 742.5,250C 755.848,249.893 769.181,250.393 782.5,251.5C 791.69,252.245 801.023,252.912 810.5,253.5C 837.035,254.6 863.535,256.267 890,258.5C 891.385,258.486 892.551,258.152 893.5,257.5C 923.819,259.541 954.152,261.708 984.5,264C 961.938,286.064 939.271,307.898 916.5,329.5C 901.586,341.744 887.586,355.078 874.5,369.5C 854.921,386.907 835.755,404.907 817,423.5C 816.243,429.149 815.743,434.816 815.5,440.5C 814.92,444.81 814.586,449.143 814.5,453.5C 812.569,476.812 810.902,500.145 809.5,523.5C 808.51,529.645 808.177,535.978 808.5,542.5C 806.965,551.384 806.298,560.384 806.5,569.5C 804.221,589.732 802.554,610.065 801.5,630.5C 800.522,640.661 799.855,650.994 799.5,661.5C 798.565,669.33 797.899,677.33 797.5,685.5C 796.866,691.145 796.532,696.811 796.5,702.5C 794.739,720.417 793.406,738.417 792.5,756.5C 790.637,775.082 789.303,793.748 788.5,812.5C 787.859,818.477 787.359,824.477 787,830.5C 742.871,853.815 698.371,876.481 653.5,898.5C 641.155,904.089 628.988,910.089 617,916.5C 606.606,907.929 596.106,899.596 585.5,891.5C 581.153,887.155 576.486,883.155 571.5,879.5C 556.391,866.116 540.725,853.45 524.5,841.5C 522.451,838.45 519.784,836.117 516.5,834.5C 511.604,829.707 506.27,825.373 500.5,821.5C 496.557,827.725 492.891,834.058 489.5,840.5C 487.43,844.3 485.097,847.966 482.5,851.5C 471.167,871.167 459.833,890.833 448.5,910.5C 444.121,917.576 439.955,924.91 436,932.5C 435.101,934.327 433.767,935.66 432,936.5C 395.364,917.099 358.531,898.099 321.5,879.5C 316.134,876.398 310.634,873.398 305,870.5C 256.587,878.43 208.087,886.096 159.5,893.5C 158.5,893.167 157.5,892.833 156.5,892.5C 172.528,862.816 188.528,833.15 204.5,803.5C 211.484,790.868 218.484,778.202 225.5,765.5C 235.044,748.412 244.044,731.078 252.5,713.5C 253.097,713.265 253.43,712.765 253.5,712C 251.393,706.51 249.393,701.01 247.5,695.5C 243.534,683.262 239.201,671.262 234.5,659.5C 233.354,654.562 231.687,649.895 229.5,645.5C 217.072,608.211 204.072,571.211 190.5,534.5C 190.5,534.167 190.5,533.833 190.5,533.5C 189.019,527.89 187.019,522.557 184.5,517.5C 182.765,510.296 180.432,503.296 177.5,496.5C 176.078,492.003 174.411,487.67 172.5,483.5C 158.897,443.023 144.897,402.69 130.5,362.5C 130.34,360.847 129.674,359.514 128.5,358.5C 124.641,346.09 120.474,333.757 116,321.5C 105.991,316.337 95.8239,311.671 85.5,307.5C 61.8941,295.697 38.2274,283.864 14.5,272C 93,194.833 171.5,117.667 250,40.5C 261.112,73.6071 271.612,106.94 281.5,140.5 Z"/></g>
<g><path style="opacity:1" fill="#c9ad5b" d="M 544.5,81.5 C 541.769,83.9464 539.769,86.9464 538.5,90.5C 527.026,83.594 515.693,76.4274 504.5,69C 502.635,67.6986 500.635,67.3653 498.5,68C 472.935,85.7466 447.268,103.247 421.5,120.5C 426.179,111.806 430.846,103.14 435.5,94.5C 456.522,80.1664 477.856,66.1664 499.5,52.5C 514.735,61.9416 529.735,71.6082 544.5,81.5 Z"/></g>
<g><path style="opacity:1" fill="#fede70" d="M 538.5,90.5 C 538.5,90.8333 538.5,91.1667 538.5,91.5C 532.075,101.344 526.408,111.678 521.5,122.5C 517.753,119.96 513.753,117.96 509.5,116.5C 504.518,117.489 499.852,119.323 495.5,122C 476.491,135.666 458.658,150.833 442,167.5C 441.015,169.366 440.515,171.366 440.5,173.5C 444.246,195.814 449.246,217.814 455.5,239.5C 455.628,241.655 455.128,243.655 454,245.5C 432.234,284.7 410.734,324.034 389.5,363.5C 377.908,367.476 366.241,371.476 354.5,375.5C 349.345,359.213 344.345,342.88 339.5,326.5C 339.414,325.504 339.748,324.671 340.5,324C 360.508,313.336 381.008,303.836 402,295.5C 401.82,288.428 400.82,281.428 399,274.5C 394,254.167 389,233.833 384,213.5C 382.352,211.972 380.352,211.305 378,211.5C 375.472,211.725 372.972,212.058 370.5,212.5C 387.167,182.5 403.833,152.5 420.5,122.5C 420.833,121.833 421.167,121.167 421.5,120.5C 447.268,103.247 472.935,85.7466 498.5,68C 500.635,67.3653 502.635,67.6986 504.5,69C 515.693,76.4274 527.026,83.594 538.5,90.5 Z"/></g>
<g><path style="opacity:1" fill="#ecd484" d="M 544.5,81.5 C 608.21,122.015 671.544,163.015 734.5,204.5C 732.957,206.928 731.957,209.594 731.5,212.5C 731.167,212.5 730.833,212.5 730.5,212.5C 666.809,171.656 602.809,131.322 538.5,91.5C 538.5,91.1667 538.5,90.8333 538.5,90.5C 539.769,86.9464 541.769,83.9464 544.5,81.5 Z"/></g>
<g><path style="opacity:1" fill="#fee58b" d="M 538.5,91.5 C 602.809,131.322 666.809,171.656 730.5,212.5C 725.108,225.617 719.442,238.617 713.5,251.5C 704.44,245.286 695.773,238.452 687.5,231C 682.88,229.462 679.713,230.962 678,235.5C 667.536,259.067 657.369,282.733 647.5,306.5C 648.247,309.822 649.914,312.655 652.5,315C 660.274,320.884 668.607,325.717 677.5,329.5C 673.033,340.225 668.367,350.892 663.5,361.5C 663.863,362.183 664.196,362.85 664.5,363.5C 594.521,343.855 523.521,339.355 451.5,350C 430.691,353.967 410.024,358.467 389.5,363.5C 410.734,324.034 432.234,284.7 454,245.5C 455.128,243.655 455.628,241.655 455.5,239.5C 462.31,261.094 469.643,282.594 477.5,304C 502.666,300.407 527.999,297.741 553.5,296C 554.416,295.626 555.25,295.126 556,294.5C 564.165,252.186 573.832,210.186 585,168.5C 585.667,166.167 585.667,163.833 585,161.5C 563.397,149.033 542.231,136.033 521.5,122.5C 526.408,111.678 532.075,101.344 538.5,91.5 Z"/></g>
<g><path style="opacity:1" fill="#edd585" d="M 435.5,94.5 C 430.846,103.14 426.179,111.806 421.5,120.5C 421.167,121.167 420.833,121.833 420.5,122.5C 380.689,149.243 341.022,176.243 301.5,203.5C 299.056,197.418 297.056,191.085 295.5,184.5C 341.916,154.079 388.582,124.079 435.5,94.5 Z"/></g>
<g><path style="opacity:1" fill="#a6ea63" d="M 777.5,475.5 C 776.778,475.918 776.278,476.584 776,477.5C 760.13,579.851 744.13,682.185 728,784.5C 694.142,802.429 660.142,820.096 626,837.5C 624.775,837.138 623.609,836.638 622.5,836C 606.246,823.054 590.246,809.887 574.5,796.5C 599.272,749.124 623.939,701.624 648.5,654C 614.69,619.691 580.357,585.858 545.5,552.5C 493.866,584.969 442.366,617.636 391,650.5C 365.152,707.526 339.319,764.526 313.5,821.5C 301.5,821.5 289.5,821.5 277.5,821.5C 289.555,777.333 302.222,733.333 315.5,689.5C 289.493,620.823 263.493,552.156 237.5,483.5C 256.745,445.178 276.412,407.012 296.5,369C 291.794,353.049 286.794,337.216 281.5,321.5C 261.08,356.671 240.914,392.004 221,427.5C 220.051,429.093 218.885,430.426 217.5,431.5C 204.818,398.142 192.151,364.809 179.5,331.5C 201.025,294.957 222.691,258.457 244.5,222C 236.46,198.044 228.126,174.211 219.5,150.5C 188.713,189.242 158.046,228.076 127.5,267C 111.503,268.264 95.5033,269.431 79.5,270.5C 81.7589,267.062 84.2589,263.729 87,260.5C 136.037,206.465 184.704,152.131 233,97.5C 288.648,268.418 344.148,439.418 399.5,610.5C 454.833,573.167 510.167,535.833 565.5,498.5C 595.22,540.732 624.387,583.399 653,626.5C 652.667,606.5 652.333,586.5 652,566.5C 689.931,472.207 727.765,377.873 765.5,283.5C 824.152,281.639 882.819,280.806 941.5,281C 888.425,323.62 835.258,366.12 782,408.5C 779.673,430.761 778.173,453.094 777.5,475.5 Z"/></g>
<g><path style="opacity:1" fill="#72582f" d="M 521.5,122.5 C 542.231,136.033 563.397,149.033 585,161.5C 585.667,163.833 585.667,166.167 585,168.5C 573.832,210.186 564.165,252.186 556,294.5C 555.25,295.126 554.416,295.626 553.5,296C 527.999,297.741 502.666,300.407 477.5,304C 469.643,282.594 462.31,261.094 455.5,239.5C 449.246,217.814 444.246,195.814 440.5,173.5C 440.515,171.366 441.015,169.366 442,167.5C 458.658,150.833 476.491,135.666 495.5,122C 499.852,119.323 504.518,117.489 509.5,116.5C 513.753,117.96 517.753,119.96 521.5,122.5 Z"/></g>
<g><path style="opacity:1" fill="#fee58b" d="M 420.5,122.5 C 403.833,152.5 387.167,182.5 370.5,212.5C 362.054,216.895 354.054,222.062 346.5,228C 336.312,236.692 326.312,245.526 316.5,254.5C 311.345,237.545 306.345,220.545 301.5,203.5C 341.022,176.243 380.689,149.243 420.5,122.5 Z"/></g>
<g><path style="opacity:1" fill="#fede70" d="M 515.5,132.5 C 498.658,164.19 481.325,195.523 463.5,226.5C 459.536,211.643 456.036,196.643 453,181.5C 452.333,178.5 452.333,175.5 453,172.5C 466.985,157.84 482.151,144.673 498.5,133C 501.464,131.027 504.631,129.527 508,128.5C 511.059,128.944 513.559,130.277 515.5,132.5 Z"/></g>
<g><path style="opacity:1" fill="#fee58b" d="M 515.5,132.5 C 529.139,140.989 542.805,149.489 556.5,158C 561.952,161.393 567.619,164.226 573.5,166.5C 563.587,205.82 554.587,245.32 546.5,285C 525.828,286.483 505.328,288.983 485,292.5C 477.213,270.678 470.046,248.678 463.5,226.5C 481.325,195.523 498.658,164.19 515.5,132.5 Z"/></g>
<g><path style="opacity:1" fill="#82c63c" d="M 179.5,331.5 C 169.5,326.833 159.5,322.167 149.5,317.5C 148.702,313.268 147.035,309.434 144.5,306C 122.451,294.646 100.784,282.813 79.5,270.5C 95.5033,269.431 111.503,268.264 127.5,267C 158.046,228.076 188.713,189.242 219.5,150.5C 228.126,174.211 236.46,198.044 244.5,222C 222.691,258.457 201.025,294.957 179.5,331.5 Z"/></g>
<g><path style="opacity:1" fill="#c8ac5b" d="M 734.5,204.5 C 760.376,220.053 785.709,236.386 810.5,253.5C 801.023,252.912 791.69,252.245 782.5,251.5C 785.518,251.665 788.518,251.498 791.5,251C 771.266,238.392 751.266,225.558 731.5,212.5C 731.957,209.594 732.957,206.928 734.5,204.5 Z"/></g>
<g><path style="opacity:1" fill="#72582f" d="M 339.5,326.5 C 338.147,321.777 336.481,317.111 334.5,312.5C 335.15,312.804 335.817,313.137 336.5,313.5C 353.866,304.235 371.699,295.901 390,288.5C 385.172,266.881 380.339,245.215 375.5,223.5C 369.046,225.558 363.379,228.891 358.5,233.5C 344.556,243.443 332.223,255.11 321.5,268.5C 319.855,263.903 318.188,259.236 316.5,254.5C 326.312,245.526 336.312,236.692 346.5,228C 354.054,222.062 362.054,216.895 370.5,212.5C 372.972,212.058 375.472,211.725 378,211.5C 380.352,211.305 382.352,211.972 384,213.5C 389,233.833 394,254.167 399,274.5C 400.82,281.428 401.82,288.428 402,295.5C 381.008,303.836 360.508,313.336 340.5,324C 339.748,324.671 339.414,325.504 339.5,326.5 Z"/></g>
<g><path style="opacity:1" fill="#fdde70" d="M 730.5,212.5 C 730.833,212.5 731.167,212.5 731.5,212.5C 751.266,225.558 771.266,238.392 791.5,251C 788.518,251.498 785.518,251.665 782.5,251.5C 769.181,250.393 755.848,249.893 742.5,250C 739.733,256.138 737.066,262.304 734.5,268.5C 727.186,263.182 720.186,257.516 713.5,251.5C 719.442,238.617 725.108,225.617 730.5,212.5 Z"/></g>
<g><path style="opacity:1" fill="#fdde70" d="M 334.5,312.5 C 332.48,304.422 330.147,296.422 327.5,288.5C 338.226,270.428 348.559,252.094 358.5,233.5C 363.379,228.891 369.046,225.558 375.5,223.5C 380.339,245.215 385.172,266.881 390,288.5C 371.699,295.901 353.866,304.235 336.5,313.5C 335.817,313.137 335.15,312.804 334.5,312.5 Z"/></g>
<g><path style="opacity:1" fill="#72582f" d="M 713.5,251.5 C 720.186,257.516 727.186,263.182 734.5,268.5C 733.203,272.083 731.537,275.416 729.5,278.5C 722.647,273.245 715.647,268.245 708.5,263.5C 702.093,257.448 695.426,251.615 688.5,246C 685.936,245.55 684.436,246.716 684,249.5C 675.558,268.05 667.392,286.716 659.5,305.5C 666.094,311.633 673.76,315.966 682.5,318.5C 690.699,322.793 699.366,326.126 708.5,328.5C 707.169,331.829 705.836,335.162 704.5,338.5C 695.29,336.097 686.29,333.097 677.5,329.5C 668.607,325.717 660.274,320.884 652.5,315C 649.914,312.655 648.247,309.822 647.5,306.5C 657.369,282.733 667.536,259.067 678,235.5C 679.713,230.962 682.88,229.462 687.5,231C 695.773,238.452 704.44,245.286 713.5,251.5 Z"/></g>
<g><path style="opacity:1" fill="#fde48a" d="M 358.5,233.5 C 348.559,252.094 338.226,270.428 327.5,288.5C 325.298,281.893 323.298,275.226 321.5,268.5C 332.223,255.11 344.556,243.443 358.5,233.5 Z"/></g>
<g><path style="opacity:1" fill="#fde48a" d="M 708.5,263.5 C 699.56,281.712 690.894,300.046 682.5,318.5C 673.76,315.966 666.094,311.633 659.5,305.5C 667.392,286.716 675.558,268.05 684,249.5C 684.436,246.716 685.936,245.55 688.5,246C 695.426,251.615 702.093,257.448 708.5,263.5 Z"/></g>
<g><path style="opacity:1" fill="#fddd70" d="M 708.5,263.5 C 715.647,268.245 722.647,273.245 729.5,278.5C 723.018,295.454 716.018,312.121 708.5,328.5C 699.366,326.126 690.699,322.793 682.5,318.5C 690.894,300.046 699.56,281.712 708.5,263.5 Z"/></g>
<g><path style="opacity:0.983" fill="#4e351f" d="M 85.5,307.5 C 95.8239,311.671 105.991,316.337 116,321.5C 120.474,333.757 124.641,346.09 128.5,358.5C 128.333,473.167 128.5,587.834 129,702.5C 147.131,715.143 165.631,727.143 184.5,738.5C 197.645,748.243 211.311,757.243 225.5,765.5C 218.484,778.202 211.484,790.868 204.5,803.5C 165.114,777.719 125.614,752.053 86,726.5C 85.5,586.834 85.3333,447.167 85.5,307.5 Z"/></g>
<g><path style="opacity:1" fill="#649f30" d="M 149.5,317.5 C 159.5,322.167 169.5,326.833 179.5,331.5C 192.151,364.809 204.818,398.142 217.5,431.5C 224.212,448.906 230.879,466.239 237.5,483.5C 263.493,552.156 289.493,620.823 315.5,689.5C 302.222,733.333 289.555,777.333 277.5,821.5C 289.5,821.5 301.5,821.5 313.5,821.5C 329.837,821.333 346.17,821.5 362.5,822C 374.338,829.418 386.004,837.085 397.5,845C 398.759,845.982 400.092,846.315 401.5,846C 428.294,804.909 455.461,764.075 483,723.5C 513.105,748.451 543.605,772.785 574.5,796.5C 590.246,809.887 606.246,823.054 622.5,836C 623.609,836.638 624.775,837.138 626,837.5C 660.142,820.096 694.142,802.429 728,784.5C 744.13,682.185 760.13,579.851 776,477.5C 776.278,476.584 776.778,475.918 777.5,475.5C 770.309,588.39 762.976,701.223 755.5,814C 712.99,836.089 670.323,857.922 627.5,879.5C 583.185,840.352 539.018,801.019 495,761.5C 469.827,806.521 444.16,851.188 418,895.5C 395.598,882.049 373.431,868.215 351.5,854C 307.835,853.5 264.168,853.333 220.5,853.5C 242.14,804.718 264.473,756.218 287.5,708C 241.399,577.864 195.399,447.698 149.5,317.5 Z"/></g>
<g><path style="opacity:1" fill="#82c63c" d="M 812.5,319.5 C 813.978,319.238 815.311,319.571 816.5,320.5C 777.651,397.531 738.818,474.531 700,551.5C 725.566,476.139 751.566,400.805 778,325.5C 778.5,324.333 779.333,323.5 780.5,323C 791.368,322.31 802.035,321.143 812.5,319.5 Z"/></g>
<g><path style="opacity:1" fill="#82c63c" d="M 237.5,483.5 C 230.879,466.239 224.212,448.906 217.5,431.5C 218.885,430.426 220.051,429.093 221,427.5C 240.914,392.004 261.08,356.671 281.5,321.5C 286.794,337.216 291.794,353.049 296.5,369C 276.412,407.012 256.745,445.178 237.5,483.5 Z"/></g>
<g><path style="opacity:1" fill="#fddd70" d="M 677.5,329.5 C 686.29,333.097 695.29,336.097 704.5,338.5C 699.833,349.5 695.167,360.5 690.5,371.5C 681.894,368.631 673.227,365.965 664.5,363.5C 664.196,362.85 663.863,362.183 663.5,361.5C 668.367,350.892 673.033,340.225 677.5,329.5 Z"/></g>
<g><path style="opacity:0.987" fill="#4e351f" d="M 916.5,329.5 C 916.667,463.5 916.5,597.5 916,731.5C 873.556,758.636 831.056,785.636 788.5,812.5C 789.303,793.748 790.637,775.082 792.5,756.5C 819.793,739.193 846.793,721.526 873.5,703.5C 874.499,592.335 874.833,481.001 874.5,369.5C 887.586,355.078 901.586,341.744 916.5,329.5 Z"/></g>
<g><path style="opacity:1" fill="#72582f" d="M 664.5,363.5 C 673.227,365.965 681.894,368.631 690.5,371.5C 689.011,375.323 687.344,378.99 685.5,382.5C 676.556,378.591 667.222,375.591 657.5,373.5C 647.569,369.601 637.236,367.101 626.5,366C 635.784,373.785 643.784,382.618 650.5,392.5C 657.204,403.966 662.537,415.966 666.5,428.5C 662.962,435.799 659.629,443.132 656.5,450.5C 656.54,434.343 652.54,419.343 644.5,405.5C 634.068,386.568 619.402,371.735 600.5,361C 552.824,353.696 505.157,353.696 457.5,361C 418.929,384.31 400.429,418.476 402,463.5C 406.858,493.148 421.025,517.148 444.5,535.5C 441.485,537.674 438.151,539.341 434.5,540.5C 399.469,511.589 385.636,474.589 393,429.5C 398.833,404.019 411.667,382.852 431.5,366C 413.349,368.788 395.682,373.288 378.5,379.5C 371.177,380.823 364.51,383.49 358.5,387.5C 357.181,383.584 355.848,379.584 354.5,375.5C 366.241,371.476 377.908,367.476 389.5,363.5C 410.024,358.467 430.691,353.967 451.5,350C 523.521,339.355 594.521,343.855 664.5,363.5 Z"/></g>
<g><path style="opacity:1" fill="#fee58b" d="M 644.5,405.5 C 629.278,437.618 614.278,469.952 599.5,502.5C 592.604,494.388 585.937,486.055 579.5,477.5C 592.082,449.321 585.749,426.488 560.5,409C 532.493,395.112 507.993,399.612 487,422.5C 474.359,442.435 474.359,462.435 487,482.5C 493.732,490.096 501.565,496.096 510.5,500.5C 488.762,512.702 466.762,524.369 444.5,535.5C 421.025,517.148 406.858,493.148 402,463.5C 400.429,418.476 418.929,384.31 457.5,361C 505.157,353.696 552.824,353.696 600.5,361C 619.402,371.735 634.068,386.568 644.5,405.5 Z"/></g>
<g><path style="opacity:1" fill="#edd585" d="M 130.5,362.5 C 144.897,402.69 158.897,443.023 172.5,483.5C 168.227,489.442 163.227,494.776 157.5,499.5C 154.721,489.672 151.221,480.005 147,470.5C 147.638,516.824 148.472,563.158 149.5,609.5C 149.5,609.833 149.5,610.167 149.5,610.5C 142.774,621.608 136.274,632.941 130,644.5C 129.168,550.332 129.334,456.332 130.5,362.5 Z"/></g>
<g><path style="opacity:1" fill="#fce38a" d="M 434.5,540.5 C 426.604,545.615 418.27,549.949 409.5,553.5C 395.101,504.969 380.101,456.636 364.5,408.5C 369.932,399.143 375.266,389.643 380.5,380C 379.906,379.536 379.239,379.369 378.5,379.5C 395.682,373.288 413.349,368.788 431.5,366C 411.667,382.852 398.833,404.019 393,429.5C 385.636,474.589 399.469,511.589 434.5,540.5 Z"/></g>
<g><path style="opacity:1" fill="#fae188" d="M 657.5,373.5 C 654.882,379.735 652.548,386.068 650.5,392.5C 643.784,382.618 635.784,373.785 626.5,366C 637.236,367.101 647.569,369.601 657.5,373.5 Z"/></g>
<g><path style="opacity:1" fill="#c9ae5c" d="M 874.5,369.5 C 874.833,481.001 874.499,592.335 873.5,703.5C 873.667,629.833 873.5,556.166 873,482.5C 868.055,489.416 862.889,496.083 857.5,502.5C 857.672,501.508 857.338,500.842 856.5,500.5C 860.172,497.334 862.839,493.501 864.5,489C 863.179,484.842 860.846,481.342 857.5,478.5C 858.822,469.325 858.822,459.992 857.5,450.5C 851.741,454.034 846.407,458.034 841.5,462.5C 833.245,454.702 824.578,447.369 815.5,440.5C 815.743,434.816 816.243,429.149 817,423.5C 835.755,404.907 854.921,386.907 874.5,369.5 Z"/></g>
<g><path style="opacity:1" fill="#fddd70" d="M 657.5,373.5 C 667.222,375.591 676.556,378.591 685.5,382.5C 679.167,397.833 672.833,413.167 666.5,428.5C 662.537,415.966 657.204,403.966 650.5,392.5C 652.548,386.068 654.882,379.735 657.5,373.5 Z"/></g>
<g><path style="opacity:1" fill="#fbdc6f" d="M 378.5,379.5 C 379.239,379.369 379.906,379.536 380.5,380C 375.266,389.643 369.932,399.143 364.5,408.5C 362.5,401.501 360.5,394.501 358.5,387.5C 364.51,383.49 371.177,380.823 378.5,379.5 Z"/></g>
<g><path style="opacity:1" fill="#735930" d="M 579.5,477.5 C 577.068,474.312 574.401,471.312 571.5,468.5C 572.022,465.747 572.856,463.08 574,460.5C 574.667,457.833 574.667,455.167 574,452.5C 557.409,465.546 540.909,478.713 524.5,492C 524.728,492.399 525.062,492.565 525.5,492.5C 520.667,495.418 515.667,498.084 510.5,500.5C 501.565,496.096 493.732,490.096 487,482.5C 474.359,462.435 474.359,442.435 487,422.5C 507.993,399.612 532.493,395.112 560.5,409C 585.749,426.488 592.082,449.321 579.5,477.5 Z"/></g>
<g><path style="opacity:1" fill="#fddd70" d="M 644.5,405.5 C 652.54,419.343 656.54,434.343 656.5,450.5C 646.438,474.512 636.271,498.512 626,522.5C 625.117,525.102 623.617,527.269 621.5,529C 619.613,529.163 618.113,528.329 617,526.5C 610.924,518.604 605.091,510.604 599.5,502.5C 614.278,469.952 629.278,437.618 644.5,405.5 Z"/></g>
<g><path style="opacity:1" fill="#f9e088" d="M 517.5,413.5 C 519.288,413.215 520.955,413.548 522.5,414.5C 511.146,427.353 499.98,440.353 489,453.5C 488.035,441.26 492.201,431.093 501.5,423C 506.763,419.54 512.096,416.373 517.5,413.5 Z"/></g>
<g><path style="opacity:1" fill="#fae188" d="M 546.5,417.5 C 527.596,432.894 509.096,448.894 491,465.5C 488.525,461.572 488.358,457.739 490.5,454C 506.167,440.333 521.833,426.667 537.5,413C 540.502,413.158 543.502,413.658 546.5,414.5C 546.5,415.5 546.5,416.5 546.5,417.5 Z"/></g>
<g><path style="opacity:1" fill="#fce38a" d="M 546.5,417.5 C 551.997,416.732 556.663,418.565 560.5,423C 542.117,443.594 523.617,464.094 505,484.5C 502.667,482.5 500.333,480.5 498,478.5C 496.813,476.956 496.48,475.289 497,473.5C 513.708,454.962 530.208,436.295 546.5,417.5 Z"/></g>
<g><path style="opacity:1" fill="#fbe289" d="M 566.5,431.5 C 570.171,433.345 572.004,436.345 572,440.5C 555.862,457.638 539.362,474.472 522.5,491C 516.6,490.725 511.267,488.725 506.5,485C 526.397,466.93 546.397,449.097 566.5,431.5 Z"/></g>
<g><path style="opacity:1" fill="#71572e" d="M 815.5,440.5 C 824.578,447.369 833.245,454.702 841.5,462.5C 847.194,467.527 852.527,472.86 857.5,478.5C 860.846,481.342 863.179,484.842 864.5,489C 862.839,493.501 860.172,497.334 856.5,500.5C 847.108,510.894 837.108,520.561 826.5,529.5C 820.824,534.333 814.824,538.666 808.5,542.5C 808.177,535.978 808.51,529.645 809.5,523.5C 809.34,525.199 809.506,526.866 810,528.5C 816.332,523.267 822.498,517.934 828.5,512.5C 836.662,505.171 844.328,497.338 851.5,489C 845.329,481.662 838.662,474.829 831.5,468.5C 826.156,463.157 820.489,458.157 814.5,453.5C 814.586,449.143 814.92,444.81 815.5,440.5 Z"/></g>
<g><path style="opacity:1" fill="#fcdd70" d="M 857.5,478.5 C 852.527,472.86 847.194,467.527 841.5,462.5C 846.407,458.034 851.741,454.034 857.5,450.5C 858.822,459.992 858.822,469.325 857.5,478.5 Z"/></g>
<g><path style="opacity:1" fill="#f7df87" d="M 571.5,468.5 C 556.455,477.023 541.121,485.023 525.5,492.5C 525.062,492.565 524.728,492.399 524.5,492C 540.909,478.713 557.409,465.546 574,452.5C 574.667,455.167 574.667,457.833 574,460.5C 572.856,463.08 572.022,465.747 571.5,468.5 Z"/></g>
<g><path style="opacity:1" fill="#c7ac5a" d="M 814.5,453.5 C 820.489,458.157 826.156,463.157 831.5,468.5C 830.883,468.611 830.383,468.944 830,469.5C 829.551,481.693 828.718,493.86 827.5,506C 827.504,508.361 827.837,510.527 828.5,512.5C 822.498,517.934 816.332,523.267 810,528.5C 809.506,526.866 809.34,525.199 809.5,523.5C 810.902,500.145 812.569,476.812 814.5,453.5 Z"/></g>
<g><path style="opacity:1" fill="#fcdc6f" d="M 831.5,468.5 C 838.662,474.829 845.329,481.662 851.5,489C 844.328,497.338 836.662,505.171 828.5,512.5C 827.837,510.527 827.504,508.361 827.5,506C 828.718,493.86 829.551,481.693 830,469.5C 830.383,468.944 830.883,468.611 831.5,468.5 Z"/></g>
<g><path style="opacity:1" fill="#fee58b" d="M 157.5,499.5 C 156.542,500.962 155.376,502.295 154,503.5C 153.333,505.167 153.333,506.833 154,508.5C 158.023,513.022 162.523,517.022 167.5,520.5C 171.21,532.257 175.21,543.924 179.5,555.5C 169.865,573.777 159.865,591.777 149.5,609.5C 148.472,563.158 147.638,516.824 147,470.5C 151.221,480.005 154.721,489.672 157.5,499.5 Z"/></g>
<g><path style="opacity:1" fill="#fee899" d="M 873.5,703.5 C 846.793,721.526 819.793,739.193 792.5,756.5C 793.406,738.417 794.739,720.417 796.5,702.5C 802.77,695.729 809.27,689.062 816,682.5C 816.875,681.127 817.375,679.627 817.5,678C 812.533,664.768 807.366,651.601 802,638.5C 801.503,635.854 801.336,633.187 801.5,630.5C 802.554,610.065 804.221,589.732 806.5,569.5C 813.519,561.143 820.185,552.476 826.5,543.5C 837.186,530.141 847.52,516.474 857.5,502.5C 862.889,496.083 868.055,489.416 873,482.5C 873.5,556.166 873.667,629.833 873.5,703.5 Z"/></g>
<g><path style="opacity:1" fill="#72582f" d="M 172.5,483.5 C 174.411,487.67 176.078,492.003 177.5,496.5C 174.036,499.462 170.703,502.629 167.5,506C 172.533,510.844 178.2,514.677 184.5,517.5C 187.019,522.557 189.019,527.89 190.5,533.5C 182.374,529.938 174.707,525.605 167.5,520.5C 162.523,517.022 158.023,513.022 154,508.5C 153.333,506.833 153.333,505.167 154,503.5C 155.376,502.295 156.542,500.962 157.5,499.5C 163.227,494.776 168.227,489.442 172.5,483.5 Z"/></g>
<g><path style="opacity:1" fill="#e6cf81" d="M 177.5,496.5 C 180.432,503.296 182.765,510.296 184.5,517.5C 178.2,514.677 172.533,510.844 167.5,506C 170.703,502.629 174.036,499.462 177.5,496.5 Z"/></g>
<g><path style="opacity:1" fill="#fcdc70" d="M 856.5,500.5 C 857.338,500.842 857.672,501.508 857.5,502.5C 847.52,516.474 837.186,530.141 826.5,543.5C 826.5,538.833 826.5,534.167 826.5,529.5C 837.108,520.561 847.108,510.894 856.5,500.5 Z"/></g>
<g><path style="opacity:1" fill="#ecd485" d="M 167.5,520.5 C 174.707,525.605 182.374,529.938 190.5,533.5C 190.5,533.833 190.5,534.167 190.5,534.5C 187.167,541.5 183.833,548.5 180.5,555.5C 180.167,555.5 179.833,555.5 179.5,555.5C 175.21,543.924 171.21,532.257 167.5,520.5 Z"/></g>
<g><path style="opacity:1" fill="#c8ad5b" d="M 826.5,529.5 C 826.5,534.167 826.5,538.833 826.5,543.5C 820.185,552.476 813.519,561.143 806.5,569.5C 806.298,560.384 806.965,551.384 808.5,542.5C 814.824,538.666 820.824,534.333 826.5,529.5 Z"/></g>
<g><path style="opacity:1" fill="#c8ac5b" d="M 190.5,534.5 C 204.072,571.211 217.072,608.211 229.5,645.5C 226.655,650.527 223.321,655.194 219.5,659.5C 206.493,624.823 193.493,590.156 180.5,555.5C 183.833,548.5 187.167,541.5 190.5,534.5 Z"/></g>
<g><path style="opacity:1" fill="#82c63c" d="M 574.5,796.5 C 543.605,772.785 513.105,748.451 483,723.5C 455.461,764.075 428.294,804.909 401.5,846C 400.092,846.315 398.759,845.982 397.5,845C 386.004,837.085 374.338,829.418 362.5,822C 346.17,821.5 329.837,821.333 313.5,821.5C 339.319,764.526 365.152,707.526 391,650.5C 442.366,617.636 493.866,584.969 545.5,552.5C 580.357,585.858 614.69,619.691 648.5,654C 623.939,701.624 599.272,749.124 574.5,796.5 Z"/></g>
<g><path style="opacity:1" fill="#fede70" d="M 179.5,555.5 C 179.833,555.5 180.167,555.5 180.5,555.5C 193.493,590.156 206.493,624.823 219.5,659.5C 217.258,664.258 214.758,668.925 212,673.5C 210.994,677.802 211.494,681.802 213.5,685.5C 206.167,698.833 198.833,712.167 191.5,725.5C 191.167,725.5 190.833,725.5 190.5,725.5C 177.439,717.551 164.606,709.217 152,700.5C 150.552,670.528 149.718,640.528 149.5,610.5C 149.5,610.167 149.5,609.833 149.5,609.5C 159.865,591.777 169.865,573.777 179.5,555.5 Z"/></g>
<g><path style="opacity:1" fill="#caae5d" d="M 128.5,358.5 C 129.674,359.514 130.34,360.847 130.5,362.5C 129.334,456.332 129.168,550.332 130,644.5C 136.274,632.941 142.774,621.608 149.5,610.5C 149.718,640.528 150.552,670.528 152,700.5C 164.606,709.217 177.439,717.551 190.5,725.5C 189.308,730.217 187.308,734.55 184.5,738.5C 165.631,727.143 147.131,715.143 129,702.5C 128.5,587.834 128.333,473.167 128.5,358.5 Z"/></g>
<g><path style="opacity:1" fill="#72582f" d="M 801.5,630.5 C 801.336,633.187 801.503,635.854 802,638.5C 807.366,651.601 812.533,664.768 817.5,678C 817.375,679.627 816.875,681.127 816,682.5C 809.27,689.062 802.77,695.729 796.5,702.5C 796.532,696.811 796.866,691.145 797.5,685.5C 800.384,682.761 803.051,679.761 805.5,676.5C 803.208,671.587 801.208,666.587 799.5,661.5C 799.855,650.994 800.522,640.661 801.5,630.5 Z"/></g>
<g><path style="opacity:1" fill="#71582f" d="M 229.5,645.5 C 231.687,649.895 233.354,654.562 234.5,659.5C 229.652,664.676 225.652,670.509 222.5,677C 230.71,683.383 239.044,689.55 247.5,695.5C 249.393,701.01 251.393,706.51 253.5,712C 253.43,712.765 253.097,713.265 252.5,713.5C 244.685,708.086 237.018,702.42 229.5,696.5C 224.74,692.085 219.406,688.419 213.5,685.5C 211.494,681.802 210.994,677.802 212,673.5C 214.758,668.925 217.258,664.258 219.5,659.5C 223.321,655.194 226.655,650.527 229.5,645.5 Z"/></g>
<g><path style="opacity:1" fill="#e7d081" d="M 234.5,659.5 C 239.201,671.262 243.534,683.262 247.5,695.5C 239.044,689.55 230.71,683.383 222.5,677C 225.652,670.509 229.652,664.676 234.5,659.5 Z"/></g>
<g><path style="opacity:1" fill="#f2dd91" d="M 799.5,661.5 C 801.208,666.587 803.208,671.587 805.5,676.5C 803.051,679.761 800.384,682.761 797.5,685.5C 797.899,677.33 798.565,669.33 799.5,661.5 Z"/></g>
<g><path style="opacity:1" fill="#fee58b" d="M 213.5,685.5 C 219.406,688.419 224.74,692.085 229.5,696.5C 223.701,709.888 217.701,723.221 211.5,736.5C 210.635,737.583 209.635,737.749 208.5,737C 202.656,733.304 196.989,729.47 191.5,725.5C 198.833,712.167 206.167,698.833 213.5,685.5 Z"/></g>
<g><path style="opacity:1" fill="#ecd485" d="M 229.5,696.5 C 237.018,702.42 244.685,708.086 252.5,713.5C 244.044,731.078 235.044,748.412 225.5,765.5C 211.311,757.243 197.645,748.243 184.5,738.5C 187.308,734.55 189.308,730.217 190.5,725.5C 190.833,725.5 191.167,725.5 191.5,725.5C 196.989,729.47 202.656,733.304 208.5,737C 209.635,737.749 210.635,737.583 211.5,736.5C 217.701,723.221 223.701,709.888 229.5,696.5 Z"/></g>
<g><path style="opacity:1" fill="#c6ab5a" d="M 516.5,834.5 C 510.597,839.373 504.097,843.373 497,846.5C 493.738,845.306 491.238,843.306 489.5,840.5C 492.891,834.058 496.557,827.725 500.5,821.5C 506.27,825.373 511.604,829.707 516.5,834.5 Z"/></g>
<g><path style="opacity:1" fill="#71572e" d="M 516.5,834.5 C 519.784,836.117 522.451,838.45 524.5,841.5C 517.416,847.888 509.416,853.055 500.5,857C 497.833,857.667 495.167,857.667 492.5,857C 489.273,854.888 485.94,853.055 482.5,851.5C 485.097,847.966 487.43,844.3 489.5,840.5C 491.238,843.306 493.738,845.306 497,846.5C 504.097,843.373 510.597,839.373 516.5,834.5 Z"/></g>
<g><path style="opacity:1" fill="#c9ad5b" d="M 524.5,841.5 C 540.725,853.45 556.391,866.116 571.5,879.5C 561.363,892.482 551.363,905.649 541.5,919C 541.728,919.399 542.062,919.565 542.5,919.5C 529.07,928.725 515.403,937.725 501.5,946.5C 484.032,935.53 466.699,924.364 449.5,913C 448.748,912.329 448.414,911.496 448.5,910.5C 459.833,890.833 471.167,871.167 482.5,851.5C 485.94,853.055 489.273,854.888 492.5,857C 495.167,857.667 497.833,857.667 500.5,857C 509.416,853.055 517.416,847.888 524.5,841.5 Z"/></g>
<g><path style="opacity:0.978" fill="#4e351f" d="M 321.5,879.5 C 358.531,898.099 395.364,917.099 432,936.5C 433.767,935.66 435.101,934.327 436,932.5C 439.955,924.91 444.121,917.576 448.5,910.5C 448.414,911.496 448.748,912.329 449.5,913C 466.699,924.364 484.032,935.53 501.5,946.5C 515.403,937.725 529.07,928.725 542.5,919.5C 557.004,910.416 571.337,901.082 585.5,891.5C 596.106,899.596 606.606,907.929 617,916.5C 628.988,910.089 641.155,904.089 653.5,898.5C 603.035,931.905 552.035,964.572 500.5,996.5C 440.547,957.869 380.88,918.869 321.5,879.5 Z"/></g>
<g><path style="opacity:1" fill="#fbe596" d="M 571.5,879.5 C 576.486,883.155 581.153,887.155 585.5,891.5C 571.337,901.082 557.004,910.416 542.5,919.5C 542.062,919.565 541.728,919.399 541.5,919C 551.363,905.649 561.363,892.482 571.5,879.5 Z"/></g>
</svg>
